<svg xmlns="http://www.w3.org/2000/svg" version="1.1" xmlns:xlink="http://www.w3.org/1999/xlink" xmlns:svgjs="http://svgjs.dev/svgjs" width="100%" height="100%" viewBox="0 0 1000 600"><rect width="1000" height="600" x="0" y="0" fill="#783aab"/><g><rect width="333.3333333333333" height="333.3333333333333" rx="13.333333333333334" ry="13.333333333333334" y="182.71395771627624" fill="#2c024f" transform="matrix(0.7788562830148735,0,0,0.7788562830148735,0,27.882697465978907)" x="160.4917449951172"/><path d="M372.5934534678246 378.27155777027804L390.2405112463822 384.88920443723714Q385.61428603012837 397.23601743160987 377.005217912464 406.1820953332398Q368.3961497947996 415.1281732348697 356.81526812762115 419.7543984511235Q345.2343864604427 424.38062366737734 331.57017158329563 424.38062366737734L331.57017158329563 424.38062366737734Q310.82875124287295 424.38062366737734 295.7245854706005 415.220084994133Q280.6204196983281 406.05954632088867 272.3483613646292 389.30096888187643Q264.0763030309304 372.5423914428643 264.0763030309304 349.3806281085074L264.0763030309304 349.3806281085074Q264.0763030309304 326.2188647741506 272.3483613646292 309.46028733513845Q280.6204196983281 292.7017098961262 295.7245854706005 283.54117122288187Q310.82875124287295 274.38063254963754 331.11061278697906 274.38063254963754L331.11061278697906 274.38063254963754Q345.2343864604427 274.38063254963754 356.2637975720412 278.2409264386971Q367.29320868363976 282.10122032775655 375.13634547410976 289.69925909352435Q382.9488450114921 297.32793511238003 387.60570748083364 308.35734622397854L387.60570748083364 308.35734622397854L370.17311047389046 316.5068555453263Q365.30178723293443 303.94558177933914 356.17188581277793 297.41984687164336Q347.0113471395336 290.92474921703536 332.4586519228411 290.92474921703536L332.4586519228411 290.92474921703536Q317.6608586814464 290.92474921703536 306.4169867982335 297.87940566796Q295.1731149150206 304.8340621188846 288.892478032027 317.8242574281006Q282.58120389594563 330.8450899904044 282.58120389594563 349.3806281085074L282.58120389594563 349.3806281085074Q282.58120389594563 367.70170545499604 288.5554682480615 380.81444977656315Q294.49909534708956 393.92719409813037 305.52850645868807 400.8818505490549Q316.5579175702866 407.8365069999795 331.57017158329563 407.8365069999795L331.57017158329563 407.8365069999795Q346.1228667999882 407.8365069999795 356.93781713997225 400.45292900582604Q367.75276747995633 393.06935101167267 372.5934534678246 378.27155777027804L372.5934534678246 378.27155777027804Z " fill="#783aab" transform="matrix(0.7788562830148735,0,0,0.7788562830148735,0,27.882697465978907)"/><path d="M676.8768703974364 382.01013053796987L693.0930858241487 388.0912113229871Q688.8419599049932 399.4369314913291 680.9309242541145 407.6576518118153Q673.0198886032357 415.87837213230137 662.3779972294558 420.12949805145684Q651.7361058556758 424.3806239706123 639.1798001606868 424.3806239706123L639.1798001606868 424.3806239706123Q620.1201164039433 424.3806239706123 606.2406125751774 415.9628315876488Q592.3611087464114 407.5450392046853 584.75975776514 392.1452651796651Q577.1584067838687 376.7454911546449 577.1584067838687 355.461708407085L577.1584067838687 355.461708407085Q577.1584067838687 334.17792565952504 584.75975776514 318.77815163450487Q592.3611087464114 303.3783776094847 606.2406125751774 294.9605852265212Q620.1201164039433 286.54279284355766 638.7575028839494 286.54279284355766L638.7575028839494 286.54279284355766Q651.7361058556758 286.54279284355766 661.871240497371 290.090089968151Q672.0063751390662 293.6373870927443 679.2135819953828 300.61936873480096Q686.3926356999169 307.62950352864016 690.6719147708549 317.7646381703354L690.6719147708549 317.7646381703354L674.65277140662 325.25337654447685Q670.1764202732046 313.71058431365725 661.7867810420236 307.7139629839876Q653.36898865906 301.7454948061004 639.9962415623788 301.7454948061004L639.9962415623788 301.7454948061004Q626.3982692514378 301.7454948061004 616.0660625472652 308.13626026072495Q605.7338558430927 314.5270257153494 599.9624597276829 326.4639620711238Q594.1629104604906 338.4290515786805 594.1629104604906 355.461708407085L594.1629104604906 355.461708407085Q594.1629104604906 372.297293173012 599.6527750580756 384.3468421359163Q605.114486503878 396.3963910988206 615.2496211455731 402.78715655344513Q625.3847557872683 409.1779220080696 639.1798001606868 409.1779220080696L639.1798001606868 409.1779220080696Q652.5525472573679 409.1779220080696 662.4906098365857 402.39301242849024Q672.4286724158035 395.608102848911 676.8768703974364 382.01013053796987L676.8768703974364 382.01013053796987ZM780.4523158052048 384.8535988680011L780.4523158052048 356.86936599620935Q780.4523158052048 345.5236458278672 774.3712350201877 339.3581055875027Q768.2901542351706 333.16441219535557 757.1415061293059 333.16441219535557L757.1415061293059 333.16441219535557Q746.6122273626559 333.16441219535557 739.3205610509918 337.7252227841184Q732.0007415875452 342.2860333728812 728.5660570700819 352.42116801457644L728.5660570700819 352.42116801457644L715.3903820358781 344.3130603012203Q719.4444358925563 332.9673401328781 730.3960119359435 325.957205339039Q741.3475879793309 318.9752236969823 757.5638034060432 318.9752236969823L757.5638034060432 318.9752236969823Q768.487226297648 318.9752236969823 777.4117754126962 322.719592884053Q786.3363245277445 326.4639620711238 791.5165044557222 334.06531305239514Q796.6685312319172 341.6666640336665 796.6685312319172 353.63175354122336L796.6685312319172 353.63175354122336L796.6685312319172 402.7026970980976Q796.6685312319172 409.9943634097616 804.3824948203185 409.9943634097616L804.3824948203185 409.9943634097616Q808.2394766145192 409.9943634097616 811.8712331944599 408.9808499455921L811.8712331944599 408.9808499455921L811.0547917927679 421.73422770305865Q807.0007379360898 423.7612546313976 800.5255130261178 423.7612546313976L800.5255130261178 423.7612546313976Q794.6415043035781 423.7612546313976 789.9962342594678 421.5371556405812Q785.322811063575 419.3130566497647 782.6764147960213 414.75224606100187Q780.0581716802501 410.19143547223905 780.0581716802501 403.2939132855298L780.0581716802501 403.2939132855298L780.0581716802501 401.26688635719074L784.1122255369281 401.88625569640556Q781.6629013318518 409.7972913472843 775.8070457610945 414.75224606100187Q769.9230370385549 419.7072007747196 762.6313707268907 422.043912372666Q755.3115512634442 424.3806239706123 748.2169570142576 424.3806239706123L748.2169570142576 424.3806239706123Q739.3205610509918 424.3806239706123 731.6065974625905 421.34008357810376Q723.8926338741892 418.2995431855952 719.3318232854263 412.1058497934482Q714.7710126966634 405.9403095530836 714.7710126966634 396.81868837555794L714.7710126966634 396.81868837555794Q714.7710126966634 385.4729682072158 722.3723636779348 378.06868928842175Q729.9737146592063 370.66441036962783 743.5716869701473 368.01801410207406L743.5716869701473 368.01801410207406L783.6899282601909 360.1351316029778L783.6899282601909 373.50787869965893L751.0604253442888 380.18017567210825Q741.122362765071 382.2072026004473 736.2800206584833 385.86711233217056Q731.4095254001131 389.5270220638939 731.4095254001131 396.0022469738658L731.4095254001131 396.0022469738658Q731.4095254001131 402.28039982136033 736.3644801138307 406.24999422269093Q741.3475879793309 410.19143547223905 750.4692091568566 410.19143547223905L750.4692091568566 410.19143547223905Q756.3250647276138 410.19143547223905 761.7023167180687 408.6711652759848Q767.0795687085237 407.1508950797305 771.3306946276791 403.99774208009205Q775.5818205468346 400.87274223223596 778.0311447519109 396.1148595809957Q780.4523158052048 391.32882377797296 780.4523158052048 384.8535988680011L780.4523158052048 384.8535988680011ZM852.2146996987633 422.35359704227335L835.998484272051 422.35359704227335L835.998484272051 321.00225062532127L849.1741593062548 321.00225062532127L851.3982582970713 337.6126101769885Q855.6493842162267 328.2939169369854 863.8701045367128 323.64864689287504Q872.0908248571989 318.9752236969823 883.8306891504958 318.9752236969823L883.8306891504958 318.9752236969823Q886.4770854180497 318.9752236969823 889.6020852659057 319.3693678219371Q892.7552382655441 319.79166509867434 894.9793372563606 321.00225062532127L894.9793372563606 321.00225062532127L892.1358689263294 335.81080846290934Q889.9117699355129 334.9943670612172 887.2935268197417 334.57206978447994Q884.647130552188 334.17792565952504 879.7766352938178 334.17792565952504L879.7766352938178 334.17792565952504Q873.4984824463232 334.17792565952504 867.1077169916988 337.8378353912483Q860.7169515370744 341.4695919711892 856.4658256179189 348.8738708899831Q852.2146996987633 356.27814980877713 852.2146996987633 367.6238699771193L852.2146996987633 367.6238699771193L852.2146996987633 422.35359704227335ZM917.8960028073047 274.38063127352336L934.1122182340171 274.38063127352336L934.1122182340171 396.6216163130805Q934.1122182340171 404.3074267496994 936.9556865640482 407.2635076868604Q939.7710017422969 410.19143547223905 946.0773077415738 410.19143547223905L946.0773077415738 410.19143547223905Q950.1313615982519 410.19143547223905 952.7496047140232 409.57206613302435Q955.3960009815769 408.9808499455921 959.8441989632099 407.34796714220795L959.8441989632099 407.34796714220795L957.2259558474386 421.5371556405812Q953.9601902406703 422.97296638148805 950.1313615982519 423.6767951760502Q946.2743798040513 424.3806239706123 942.2203259473731 424.3806239706123L942.2203259473731 424.3806239706123Q929.8610923148616 424.3806239706123 923.8644709851919 417.6801738463805Q917.8960028073047 411.0078768739312 917.8960028073047 397.2128325005127L917.8960028073047 397.2128325005127L917.8960028073047 274.38063127352336ZM988.8419452991711 301.54842274362306L988.8419452991711 301.54842274362306Q983.3520807015863 301.54842274362306 980.0300087912528 298.1981976815071Q976.679783729137 294.8479726193912 976.679783729137 289.38626117358876L976.679783729137 289.38626117358876Q976.679783729137 283.8963965760039 980.0300087912528 280.5743246656705Q983.3520807015863 277.2240996035546 988.8419452991711 277.2240996035546L988.8419452991711 277.2240996035546Q994.3036567449735 277.2240996035546 997.6538818070894 280.5743246656705Q1001.0041068692053 283.8963965760039 1001.0041068692053 289.38626117358876L1001.0041068692053 289.38626117358876Q1001.0041068692053 294.8479726193912 997.6538818070894 298.1981976815071Q994.3036567449735 301.54842274362306 988.8419452991711 301.54842274362306ZM980.733837585815 321.00225062532127L996.9500530125273 321.00225062532127L996.9500530125273 422.35359704227335L980.733837585815 422.35359704227335L980.733837585815 321.00225062532127ZM1050.8633386759893 422.35359704227335L1034.6471232492768 422.35359704227335L1034.6471232492768 321.00225062532127L1048.8363117476501 321.00225062532127L1050.2439693367746 343.6936909620056L1047.6257262210033 341.4695919711892Q1050.8633386759893 333.361484257833 1056.3250501217917 328.4065295441153Q1061.8149147193765 323.4234216786151 1068.9939684239107 321.1993226877987Q1076.2011752802273 318.9752236969823 1083.9151388686287 318.9752236969823L1083.9151388686287 318.9752236969823Q1094.8385617602335 318.9752236969823 1103.7631108752817 323.14189016079024Q1112.6876599903298 327.2804034728158 1118.064911980785 335.81080846290934Q1123.4421639712398 344.3130603012203 1123.4421639712398 357.48873533542405L1123.4421639712398 357.48873533542405L1123.4421639712398 422.35359704227335L1107.2259485445275 422.35359704227335L1107.2259485445275 363.17567199548637Q1107.2259485445275 346.34008722955934 1100.0187416882109 339.75224971245746Q1092.8115348318943 333.16441219535557 1082.2822560652444 333.16441219535557L1082.2822560652444 333.16441219535557Q1074.9905897535803 333.16441219535557 1067.6989234419161 336.5990967128189Q1060.3791039784696 340.0619343820648 1055.6212213272295 347.7477448186836Q1050.8633386759893 355.461708407085 1050.8633386759893 368.4403113788113L1050.8633386759893 368.4403113788113L1050.8633386759893 422.35359704227335Z " fill="#2c024f" transform="matrix(0.7788562830148735,0,0,0.7788562830148735,0,27.882697465978907)"/></g></svg>